<?xml version="1.0"?>
<svg xmlns="http://www.w3.org/2000/svg" xmlns:xlink="http://www.w3.org/1999/xlink" id="Layer_2" data-name="Layer 2" viewBox="0 0 128 128" width="512" height="512"><defs><linearGradient id="linear-gradient" x1="122.519" y1="119.352" x2="11.815" y2="8.648" gradientUnits="userSpaceOnUse"><stop offset="0" stop-color="#583377"/><stop offset="1" stop-color="#ff4f9b"/></linearGradient></defs><title>PHOTO ALBUM</title><path d="M114.9,94.8V96.94a1.75,1.75,0,0,1-3.5,0V94.8a1.75,1.75,0,0,1,3.5,0Zm0-93.052V85.485a1.75,1.75,0,0,1-3.5,0V3.5H41.981v121H111.4V106.257a1.75,1.75,0,0,1,3.5,0V126.25a1.75,1.75,0,0,1-1.75,1.75h-90.5a1.75,1.75,0,0,1-1.75-1.75v-4.583H14.854a1.75,1.75,0,0,1-1.75-1.75V112.25a1.75,1.75,0,0,1,1.75-1.75H20.9v-9.667H14.854a1.75,1.75,0,0,1-1.75-1.75V91.417a1.75,1.75,0,0,1,1.75-1.75H20.9V80H14.854a1.75,1.75,0,0,1-1.75-1.75V70.583a1.75,1.75,0,0,1,1.75-1.75H20.9V59.167H14.854a1.75,1.75,0,0,1-1.75-1.75V49.75A1.75,1.75,0,0,1,14.854,48H20.9V38.333H14.854a1.75,1.75,0,0,1-1.75-1.75V28.917a1.75,1.75,0,0,1,1.75-1.75H20.9V17.5H14.854a1.75,1.75,0,0,1-1.75-1.75V8.083a1.75,1.75,0,0,1,1.75-1.75H20.9V1.75A1.75,1.75,0,0,1,22.646,0h90.5A1.75,1.75,0,0,1,114.9,1.75ZM16.6,14H28.688V9.833H16.6Zm0,20.833H28.688V30.667H16.6Zm0,20.833H28.688V51.5H16.6Zm0,20.833H28.688V72.333H16.6Zm0,20.833H28.688V93.167H16.6Zm0,20.833H28.688V114H16.6ZM24.4,124.5H38.481V3.5H24.4V6.333h6.042a1.75,1.75,0,0,1,1.75,1.75V15.75a1.75,1.75,0,0,1-1.75,1.75H24.4v9.667h6.042a1.75,1.75,0,0,1,1.75,1.75v7.667a1.75,1.75,0,0,1-1.75,1.75H24.4V48h6.042a1.75,1.75,0,0,1,1.75,1.75v7.667a1.75,1.75,0,0,1-1.75,1.75H24.4v9.667h6.042a1.75,1.75,0,0,1,1.75,1.75V78.25A1.75,1.75,0,0,1,30.438,80H24.4v9.667h6.042a1.75,1.75,0,0,1,1.75,1.75v7.667a1.75,1.75,0,0,1-1.75,1.75H24.4V110.5h6.042a1.75,1.75,0,0,1,1.75,1.75v7.667a1.75,1.75,0,0,1-1.75,1.75H24.4Zm80.5-67.992a1.75,1.75,0,0,1-1.75,1.75H50.231a1.75,1.75,0,0,1-1.75-1.75V21.758a1.75,1.75,0,0,1,3.5,0v22.57l15.588-6.8a1.747,1.747,0,0,1,1.209-.07L80.5,41.028l9.84-5.082a1.75,1.75,0,0,1,1.4-.089l9.65,3.518V23.508H64a1.75,1.75,0,0,1,0-3.5h39.146a1.75,1.75,0,0,1,1.75,1.75v34.75ZM85.3,42.488l16.094,4.9V43.1L91.268,39.407ZM101.4,54.758V51.047L80.164,44.583h0L68.376,41l-16.4,7.151v6.612ZM77.677,37.251a5.344,5.344,0,1,1,5.344-5.344A5.35,5.35,0,0,1,77.677,37.251Zm0-3.5a1.844,1.844,0,1,0-1.844-1.844A1.846,1.846,0,0,0,77.677,33.751Zm25.469,43.665H50.231a1.75,1.75,0,0,1-1.75-1.75v-9a1.75,1.75,0,0,1,1.75-1.75h52.915a1.75,1.75,0,0,1,1.75,1.75v9A1.75,1.75,0,0,1,103.146,77.417Zm-1.75-9H51.981v5.5H101.4ZM90.563,84.075a6.25,6.25,0,0,1,0,12.5H62.814a6.25,6.25,0,0,1,0-12.5Zm0,3.5H62.814a2.75,2.75,0,0,0,0,5.5H90.563a2.75,2.75,0,0,0,0-5.5Z" style="fill:url(#linear-gradient)"/></svg>
